<?xml version="1.0" encoding="UTF-8" standalone="no"?>
<svg
   version="1.1"
   width="250"
   height="100"
   viewBox="2.5 0 250 100"
   xml:space="preserve"
   id="svg63"
   sodipodi:docname="beer-auth.svg"
   inkscape:version="1.4.2 (ebf0e940, 2025-05-08)"
   xmlns:inkscape="http://www.inkscape.org/namespaces/inkscape"
   xmlns:sodipodi="http://sodipodi.sourceforge.net/DTD/sodipodi-0.dtd"
   xmlns="http://www.w3.org/2000/svg"
   xmlns:svg="http://www.w3.org/2000/svg"><sodipodi:namedview
   id="namedview63"
   pagecolor="#dee3db"
   bordercolor="#000000"
   borderopacity="0.25"
   inkscape:showpageshadow="2"
   inkscape:pageopacity="0.0"
   inkscape:pagecheckerboard="0"
   inkscape:deskcolor="#d1d1d1"
   inkscape:zoom="3.0808627"
   inkscape:cx="126.9125"
   inkscape:cy="47.713908"
   inkscape:window-width="1504"
   inkscape:window-height="785"
   inkscape:window-x="1008"
   inkscape:window-y="272"
   inkscape:window-maximized="0"
   inkscape:current-layer="svg63" />
<desc
   id="desc1">Created with Fabric.js 5.2.4</desc>
<defs
   id="defs1">


</defs>
<rect
   x="0"
   y="0"
   width="100%"
   height="100%"
   fill="transparent"
   id="rect1" />
<g
   transform="matrix(1 0 0 1 125 50)"
   id="1ee11f0a-8394-4d0c-89b7-d1227dd5a6b1">
<rect
   style="stroke: none; stroke-width: 1; stroke-dasharray: none; stroke-linecap: butt; stroke-dashoffset: 0; stroke-linejoin: miter; stroke-miterlimit: 4; fill: rgb(255,255,255); fill-rule: nonzero; opacity: 1; visibility: hidden;"
   vector-effect="non-scaling-stroke"
   x="-125"
   y="-50"
   rx="0"
   ry="0"
   width="250"
   height="100"
   id="rect2" />
</g>
<g
   transform="matrix(Infinity NaN NaN Infinity 0 0)"
   id="44cb8411-304d-4cde-9013-2ab5ad4b0cf1">
</g>
<g
   vector-effect="non-scaling-stroke"
   id="g62"
   transform="matrix(0.36,0,0,0.3,59.295415,49.675415)">
		<g
   transform="scale(0.1)"
   clip-path="url(#CLIPPATH_9)"
   id="g2">
<clipPath
   id="CLIPPATH_9">
	<path
   transform="translate(-1417.32,-1417.32)"
   id="clip-0"
   d="M 0,0 H 2834.6484 V 2834.6484 H 0 Z m 0,0"
   stroke-linecap="round" />
</clipPath>
<path
   style="opacity:0;fill:#d3e3db;fill-rule:evenodd;stroke:none;stroke-width:1;stroke-linecap:butt;stroke-linejoin:miter;stroke-miterlimit:4;stroke-dasharray:none;stroke-dashoffset:0;fill-opacity:1"
   vector-effect="non-scaling-stroke"
   transform="translate(-1417.32,-1417.32)"
   d="M 0,0 H 2834.6484 V 2834.6484 H 0 V 0"
   stroke-linecap="round"
   id="path2" />
</g>
		<g
   transform="matrix(0.1,0,0,0.1,49.7,11.29)"
   id="g3">
<path
   style="opacity:1;fill:#ffffff;fill-rule:nonzero;stroke:none;stroke-width:1;stroke-linecap:butt;stroke-linejoin:miter;stroke-miterlimit:4;stroke-dasharray:none;stroke-dashoffset:0"
   vector-effect="non-scaling-stroke"
   transform="translate(-1915.14,-1530.45)"
   d="m 1713.5,1008.3594 3.9219,81.1914 c 19.2265,0.6094 36.8867,1.168 52.9375,1.6484 21.1015,0.6289 40.0703,1.1797 56.9023,1.6406 21.2266,0.5821 39.4375,1.0196 54.6172,1.3321 15.4805,0.3164 27.9414,0.5078 37.3711,0.5586 6.8086,0.039 12.8398,0.9883 18.1719,2.6914 6.6094,2.0976 12.0273,5.2265 16.4375,9.1562 5.7187,5.0938 10.4687,11.7227 14.3906,19.4727 3.6797,7.289 6.6602,15.7383 9.0391,24.8906 11.832,45.3399 22.1797,90.8086 30.7226,136.1875 8.5664,45.5625 15.3789,91.2305 20.0977,136.8125 4.6406,44.8672 7.2304,89.8086 7.4609,134.6484 0.2305,44.961 -1.9101,89.3985 -6.7305,133.1211 -1.4687,13.3282 -2.8398,25.6172 -4.4882,36.6094 -1.7618,11.75 -3.8907,22.6016 -6.8828,32.6797 -2.7188,9.1797 -6.2969,18.1797 -11.2071,27.3398 -4.8008,8.9219 -10.8711,18.0118 -18.6914,27.5704 -10.5703,12.9414 -24.4609,25.8789 -41.4101,39.039 -16.4219,12.7305 -35.75,25.711 -57.7813,39.1289 -18.5781,11.3203 -39.0781,22.9024 -61.3476,34.8438 -21.4415,11.5 -43.9297,23.0664 -67.5118,34.8789 l 4.2696,88.7305 c 6.1914,-3.1407 11.6015,-5.8829 17.1406,-8.6719 47.4297,-23.9297 101.75,-51.3399 149.6914,-80.5391 26.2891,-16.0195 49.6602,-31.9414 69.9102,-48.1094 19.8281,-15.832 36.539,-31.7812 49.9296,-48.1718 11.711,-14.3282 20.8594,-28.1407 28.1094,-41.8789 7.211,-13.6485 12.5586,-27.2618 16.7188,-41.2891 3.9492,-13.3711 6.6523,-26.332 8.7617,-39.6523 2.0781,-13.1172 3.7109,-27.7579 5.4609,-43.6172 5.1797,-46.9727 7.4883,-94.1719 7.2578,-141.4532 -0.2304,-47.3867 -3.0078,-95.289 -7.9882,-143.457 -4.9102,-47.4726 -12.0118,-95.082 -20.961,-142.6523 -8.9805,-47.7578 -19.7812,-95.2891 -32.082,-142.418 -4.5664,-17.5313 -10.918,-34.1602 -19.4688,-49.1602 -7.5703,-13.289 -16.9414,-25.3203 -28.4179,-35.5507 -11.4727,-10.2188 -24.6133,-18.3594 -39.6328,-23.8594 -14.4102,-5.2813 -30.5704,-8.1992 -48.6485,-8.3125 -9.0117,-0.047 -20.9805,-0.2266 -35.8984,-0.5469 -15.2422,-0.3203 -33.4102,-0.7695 -54.5,-1.3398 -17.711,-0.4805 -37.4102,-1.0508 -59.0938,-1.7227 -17.8672,-0.5391 -36.7265,-1.1289 -56.5781,-1.7695"
   stroke-linecap="round"
   id="path3" />
</g>
		<g
   transform="matrix(0.1,0,0,0.1,-14.89,84.39)"
   id="g4">
<path
   style="opacity:1;fill:#ffffff;fill-rule:nonzero;stroke:none;stroke-width:1;stroke-linecap:butt;stroke-linejoin:miter;stroke-miterlimit:4;stroke-dasharray:none;stroke-dashoffset:0"
   vector-effect="non-scaling-stroke"
   transform="translate(-1268.2,-2262.57)"
   d="m 1733.9414,2214.8086 c -311.5195,0 -623.043,0 -934.57031,0 -2.60547,19.582 -3.26953,39.0195 -4.25781,58.7031 -1.22266,23.2578 21.37109,36.8164 41.76563,36.8164 h 861.64059 c 19.1602,0 45.0703,-12.039 42.6524,-35.039 -1.9219,-17.7305 -3.2813,-35.75 -6.0313,-52.961 l -1.1992,-7.5195"
   stroke-linecap="round"
   id="path4" />
</g>
		<g
   transform="matrix(0.1,0,0,0.1,-15.12,14.54)"
   clip-path="url(#CLIPPATH_10)"
   id="g54">
<linearGradient
   id="SVGID_linear-pattern-0_3"
   gradientUnits="userSpaceOnUse"
   gradientTransform="matrix(-718.21,-6.78,-6.78,718.21,1556.35,1566.03)"
   x1="-0.27832001"
   y1="0"
   x2="1.0872"
   y2="0">
<stop
   offset="0%"
   style="stop-color:rgb(252,168,0);stop-opacity: 1"
   id="stop4" />
<stop
   offset="12.5%"
   style="stop-color:rgb(252,168,0);stop-opacity: 1"
   id="stop5" />
<stop
   offset="18.75%"
   style="stop-color:rgb(252,168,0);stop-opacity: 1"
   id="stop6" />
<stop
   offset="21.875%"
   style="stop-color:rgb(252,168,0);stop-opacity: 1"
   id="stop7" />
<stop
   offset="23.4375%"
   style="stop-color:rgb(252,168,0);stop-opacity: 1"
   id="stop8" />
<stop
   offset="25%"
   style="stop-color:rgb(252,168,0);stop-opacity: 1"
   id="stop9" />
<stop
   offset="26.5625%"
   style="stop-color:rgb(252,165,0);stop-opacity: 1"
   id="stop10" />
<stop
   offset="28.125%"
   style="stop-color:rgb(252,165,0);stop-opacity: 1"
   id="stop11" />
<stop
   offset="29.6875%"
   style="stop-color:rgb(252,165,2);stop-opacity: 1"
   id="stop12" />
<stop
   offset="31.25%"
   style="stop-color:rgb(252,165,2);stop-opacity: 1"
   id="stop13" />
<stop
   offset="32.8125%"
   style="stop-color:rgb(252,163,2);stop-opacity: 1"
   id="stop14" />
<stop
   offset="34.375%"
   style="stop-color:rgb(252,163,2);stop-opacity: 1"
   id="stop15" />
<stop
   offset="35.9375%"
   style="stop-color:rgb(252,163,2);stop-opacity: 1"
   id="stop16" />
<stop
   offset="37.5%"
   style="stop-color:rgb(252,163,5);stop-opacity: 1"
   id="stop17" />
<stop
   offset="39.0625%"
   style="stop-color:rgb(252,163,5);stop-opacity: 1"
   id="stop18" />
<stop
   offset="40.625%"
   style="stop-color:rgb(252,160,5);stop-opacity: 1"
   id="stop19" />
<stop
   offset="42.1875%"
   style="stop-color:rgb(252,160,5);stop-opacity: 1"
   id="stop20" />
<stop
   offset="43.75%"
   style="stop-color:rgb(252,160,5);stop-opacity: 1"
   id="stop21" />
<stop
   offset="45.3125%"
   style="stop-color:rgb(252,160,5);stop-opacity: 1"
   id="stop22" />
<stop
   offset="46.875%"
   style="stop-color:rgb(252,158,7);stop-opacity: 1"
   id="stop23" />
<stop
   offset="48.4375%"
   style="stop-color:rgb(252,158,7);stop-opacity: 1"
   id="stop24" />
<stop
   offset="50%"
   style="stop-color:rgb(252,158,7);stop-opacity: 1"
   id="stop25" />
<stop
   offset="51.5625%"
   style="stop-color:rgb(252,158,7);stop-opacity: 1"
   id="stop26" />
<stop
   offset="53.125%"
   style="stop-color:rgb(252,158,7);stop-opacity: 1"
   id="stop27" />
<stop
   offset="54.6875%"
   style="stop-color:rgb(252,155,10);stop-opacity: 1"
   id="stop28" />
<stop
   offset="56.25%"
   style="stop-color:rgb(252,155,10);stop-opacity: 1"
   id="stop29" />
<stop
   offset="57.8125%"
   style="stop-color:rgb(252,155,10);stop-opacity: 1"
   id="stop30" />
<stop
   offset="59.375%"
   style="stop-color:rgb(252,155,10);stop-opacity: 1"
   id="stop31" />
<stop
   offset="60.9375%"
   style="stop-color:rgb(252,153,10);stop-opacity: 1"
   id="stop32" />
<stop
   offset="62.5%"
   style="stop-color:rgb(252,153,12);stop-opacity: 1"
   id="stop33" />
<stop
   offset="64.0625%"
   style="stop-color:rgb(252,153,12);stop-opacity: 1"
   id="stop34" />
<stop
   offset="65.625%"
   style="stop-color:rgb(252,153,12);stop-opacity: 1"
   id="stop35" />
<stop
   offset="67.1875%"
   style="stop-color:rgb(252,153,12);stop-opacity: 1"
   id="stop36" />
<stop
   offset="68.75%"
   style="stop-color:rgb(252,150,12);stop-opacity: 1"
   id="stop37" />
<stop
   offset="70.3125%"
   style="stop-color:rgb(252,150,15);stop-opacity: 1"
   id="stop38" />
<stop
   offset="71.875%"
   style="stop-color:rgb(252,150,15);stop-opacity: 1"
   id="stop39" />
<stop
   offset="73.4375%"
   style="stop-color:rgb(252,150,15);stop-opacity: 1"
   id="stop40" />
<stop
   offset="75%"
   style="stop-color:rgb(252,147,15);stop-opacity: 1"
   id="stop41" />
<stop
   offset="76.5625%"
   style="stop-color:rgb(252,147,15);stop-opacity: 1"
   id="stop42" />
<stop
   offset="78.125%"
   style="stop-color:rgb(252,147,17);stop-opacity: 1"
   id="stop43" />
<stop
   offset="79.6875%"
   style="stop-color:rgb(252,147,17);stop-opacity: 1"
   id="stop44" />
<stop
   offset="81.25%"
   style="stop-color:rgb(252,145,17);stop-opacity: 1"
   id="stop45" />
<stop
   offset="82.8125%"
   style="stop-color:rgb(252,145,17);stop-opacity: 1"
   id="stop46" />
<stop
   offset="84.375%"
   style="stop-color:rgb(252,145,17);stop-opacity: 1"
   id="stop47" />
<stop
   offset="85.9375%"
   style="stop-color:rgb(252,145,17);stop-opacity: 1"
   id="stop48" />
<stop
   offset="87.5%"
   style="stop-color:rgb(252,145,20);stop-opacity: 1"
   id="stop49" />
<stop
   offset="89.0625%"
   style="stop-color:rgb(252,142,20);stop-opacity: 1"
   id="stop50" />
<stop
   offset="90.625%"
   style="stop-color:rgb(252,142,20);stop-opacity: 1"
   id="stop51" />
<stop
   offset="92.1875%"
   style="stop-color:rgb(252,142,20);stop-opacity: 1"
   id="stop52" />
<stop
   offset="93.75%"
   style="stop-color:rgb(252,142,20);stop-opacity: 1"
   id="stop53" />
<stop
   offset="100%"
   style="stop-color:rgb(255,142,22);stop-opacity: 1"
   id="stop54" />
</linearGradient>
<clipPath
   id="CLIPPATH_10">
	<path
   transform="translate(-1265.88,-1563)"
   id="clip-2"
   clip-path="url(#undefined)"
   d="M 842.18359,931.51172 H 1689.5 c 9.8516,204.13668 19.6914,408.36718 29.5391,612.37888 10.4609,216.8203 20.832,433.7813 31.289,650.5977 -161.5078,0 -323.1289,0 -484.539,0 -161.418,0 -322.93754,0 -484.35551,0 10.36719,-216.8164 20.87891,-433.7774 31.29297,-650.5977 9.80078,-204.0117 19.6875,-408.2422 29.45703,-612.37888"
   stroke-linecap="round" />
</clipPath>
<path
   style="opacity:1;fill:url(#SVGID_linear-pattern-0_3);fill-rule:nonzero;stroke:none;stroke-width:1;stroke-linecap:butt;stroke-linejoin:miter;stroke-miterlimit:4;stroke-dasharray:none;stroke-dashoffset:0"
   vector-effect="non-scaling-stroke"
   transform="translate(-1265.88,-1563)"
   d="m 1762.2461,931.62109 -12.0039,1272.00781 -980.72267,-9.25 12,-1272.00781 z m 0,0"
   stroke-linecap="round"
   id="path54" />
</g>
		<g
   transform="matrix(0.1,0,0,0.1,-15.12,-34.8)"
   id="g55">
<path
   style="opacity:1;fill:#ffffff;fill-rule:evenodd;stroke:none;stroke-width:1;stroke-linecap:butt;stroke-linejoin:miter;stroke-miterlimit:4;stroke-dasharray:none;stroke-dashoffset:0"
   vector-effect="non-scaling-stroke"
   transform="translate(-1265.87,-1068.75)"
   d="M 842.18359,931.51172 H 1689.5 l 11.6016,240.50778 c -330.8125,-206.64841 -536.2735,138.9024 -870.46879,0 3.85938,-80.1679 7.71485,-160.3476 11.55078,-240.50778"
   stroke-linecap="round"
   id="path55" />
</g>
		<g
   transform="matrix(0.1,0,0,0.1,-17.65,-63.1)"
   id="g56">
<path
   style="opacity:1;fill:#ffffff;fill-rule:evenodd;stroke:none;stroke-width:1;stroke-linecap:butt;stroke-linejoin:miter;stroke-miterlimit:4;stroke-dasharray:none;stroke-dashoffset:0"
   vector-effect="non-scaling-stroke"
   transform="translate(-1240.58,-785.26)"
   d="m 869.62109,629.33984 c 23.63282,0 46.14844,4.76953 66.64453,13.39063 27.52735,-76.92188 101.04298,-131.96875 187.43358,-131.96875 55.6602,0 105.9727,22.85937 142.0899,59.67969 37.75,-40.86329 91.7812,-66.45313 151.8007,-66.45313 60.9219,0 115.6719,26.37109 153.5,68.30078 18.4219,-20.10937 44.8985,-32.73047 74.3321,-32.73047 55.6562,0 100.7773,45.13282 100.7773,100.79297 0,30.4375 -13.5,57.72656 -34.8281,76.20703 42.7891,21.8711 72.0977,66.38282 72.0977,117.74219 0,72.96875 -59.1485,132.12109 -132.1172,132.12109 -39.2618,0 -74.5118,-17.13281 -98.711,-44.3125 h -421.0703 c 3.1406,10.32032 4.8399,21.26954 4.8399,32.6211 0,61.75003 -50.0586,111.80083 -111.8008,111.80083 -57.41799,0 -104.71487,-43.293 -111.06253,-99.01177 -14.02343,3.69922 -28.74218,5.67188 -43.92578,5.67188 -94.95312,0 -171.92578,-76.97266 -171.92578,-171.92188 0,-94.96094 76.97266,-171.92969 171.92578,-171.92969"
   stroke-linecap="round"
   id="path56" />
</g>
		<g
   transform="matrix(0.1,0,0,0.1,-28.85,26.68)"
   id="g57">
<path
   style="opacity:1;fill:#ffffff;fill-rule:evenodd;stroke:none;stroke-width:1;stroke-linecap:butt;stroke-linejoin:miter;stroke-miterlimit:4;stroke-dasharray:none;stroke-dashoffset:0"
   vector-effect="non-scaling-stroke"
   transform="translate(-1128.33,-1684.59)"
   d="m 1227.9102,1608.2188 c 31.4179,0 56.8984,25.4804 56.8984,56.9101 0,31.4219 -25.4805,56.9024 -56.8984,56.9024 -31.4297,0 -56.9102,-25.4805 -56.9102,-56.9024 0,-31.4297 25.4805,-56.9101 56.9102,-56.9101 z m -259.05864,20.9726 c 31.42964,0 56.89844,25.4688 56.89844,56.8984 0,31.4219 -25.4688,56.8985 -56.89844,56.8985 -31.42578,0 -56.90234,-25.4766 -56.90234,-56.8985 0,-31.4296 25.48047,-56.8984 56.90234,-56.8984 z m 158.72654,302.4688 c 26.461,0 47.9219,21.4609 47.9219,47.9179 0,26.461 -21.4609,47.9219 -47.9219,47.9219 -26.4687,0 -47.9179,-21.4609 -47.9179,-47.9219 0,-26.457 21.4492,-47.9179 47.9179,-47.9179 z m -35.9375,-131.7696 c 16.5391,0 29.9492,13.4102 29.9492,29.9492 0,16.5391 -13.4101,29.9493 -29.9492,29.9493 -16.539,0 -29.9492,-13.4102 -29.9492,-29.9493 0,-16.539 13.4102,-29.9492 29.9492,-29.9492 z m 19.8399,-120.539 c 17.9883,0 32.5703,14.5781 32.5703,32.5703 0,17.9883 -14.582,32.5664 -32.5703,32.5664 -17.9922,0 -32.5703,-14.5781 -32.5703,-32.5664 0,-17.9922 14.5781,-32.5703 32.5703,-32.5703 z m 35.9414,-208.1407 c 17.9883,0 32.5664,14.5782 32.5664,32.5704 0,17.9804 -14.5781,32.5703 -32.5664,32.5703 -17.9922,0 -32.5703,-14.5899 -32.5703,-32.5703 0,-17.9922 14.5781,-32.5704 32.5703,-32.5704 z m -147.1211,-89.1015 c 28.1211,0 50.9101,22.8008 50.9101,50.9219 0,28.1093 -22.789,50.9101 -50.9101,50.9101 -28.11721,0 -50.91018,-22.8008 -50.91018,-50.9101 0,-28.1211 22.79297,-50.9219 50.91018,-50.9219 z m 287.5,-40.4297 c 31.4297,0 56.9101,25.4805 56.9101,56.8984 0,31.4336 -25.4804,56.9102 -56.9101,56.9102 -31.4219,0 -56.9024,-25.4766 -56.9024,-56.9102 0,-31.4179 25.4805,-56.8984 56.9024,-56.8984"
   stroke-linecap="round"
   id="path57" />
</g>
		<g
   transform="matrix(0.1,0,0,0.1,-30.5,-76.9)"
   id="g58">
<path
   style="opacity:1;fill:#b2b2b2;fill-rule:evenodd;stroke:none;stroke-width:1;stroke-linecap:butt;stroke-linejoin:miter;stroke-miterlimit:4;stroke-dasharray:none;stroke-dashoffset:0"
   vector-effect="non-scaling-stroke"
   transform="translate(-1111.87,-647.04)"
   d="m 1120.1992,555.57031 c 53.1524,0 99.3516,29.69141 122.9414,73.39844 -26.1015,-34.82031 -67.6992,-57.33984 -114.5625,-57.33984 -79.0273,0 -143.09373,64.0625 -143.09373,143.08984 0,8.10156 0.6875,16.04297 1.98047,23.78125 -4.44922,-13.64063 -6.86328,-28.19922 -6.86328,-43.32813 0,-77.10156 62.50004,-139.60156 139.59764,-139.60156"
   stroke-linecap="round"
   id="path58" />
</g>
		<g
   transform="matrix(0.1,0,0,0.1,-60.46,-61.54)"
   id="g59">
<path
   style="opacity:1;fill:#b2b2b2;fill-rule:evenodd;stroke:none;stroke-width:1;stroke-linecap:butt;stroke-linejoin:miter;stroke-miterlimit:4;stroke-dasharray:none;stroke-dashoffset:0"
   vector-effect="non-scaling-stroke"
   transform="translate(-811.75,-800.88)"
   d="m 761.17969,729.5 c 28.09375,-42.30859 76.16015,-63.39063 123.41797,-59.07031 -41.51172,2.3789 -81.4375,23.58984 -106.20704,60.89062 -41.77734,62.91016 -24.64062,147.78125 38.27344,189.5586 6.44922,4.28125 13.13672,7.9414 19.98047,11 -13.21094,-3.66797 -26.08203,-9.44922 -38.125,-17.4375 C 737.14062,873.67969 720.42187,790.87891 761.17969,729.5"
   stroke-linecap="round"
   id="path59" />
</g>
		<g
   transform="matrix(0.1,0,0,0.1,23.7,-78.23)"
   id="g60">
<path
   style="opacity:1;fill:#b2b2b2;fill-rule:evenodd;stroke:none;stroke-width:1;stroke-linecap:butt;stroke-linejoin:miter;stroke-miterlimit:4;stroke-dasharray:none;stroke-dashoffset:0"
   vector-effect="non-scaling-stroke"
   transform="translate(-1654.73,-633.78)"
   d="m 1645.7109,574.94141 c 36.2383,0 65.6172,29.3789 65.6172,65.61718 0,21.20313 -10.0586,40.05078 -25.6679,52.05078 11.1796,-11.76953 18.039,-27.67968 18.039,-45.1875 0,-36.23046 -29.3789,-65.61328 -65.6094,-65.61328 -15.039,0 -28.8906,5.0625 -39.9492,13.57032 11.9492,-12.58985 28.8477,-20.4375 47.5703,-20.4375"
   stroke-linecap="round"
   id="path60" />
</g>
		<g
   transform="scale(0.1)"
   id="g61">
<path
   style="opacity:1;fill:#302b28;fill-rule:nonzero;stroke:none;stroke-width:1;stroke-linecap:butt;stroke-linejoin:miter;stroke-miterlimit:4;stroke-dasharray:none;stroke-dashoffset:0"
   vector-effect="non-scaling-stroke"
   transform="translate(-1417.32,-1417.32)"
   d="m 1724.5586,1130.3086 9.9102,195.043 c 4.121,81.0976 8.2109,161.4492 14.0507,276.0195 l 16.0313,314.3789 c 15.3711,-7.8203 29.8203,-15.3516 43.2695,-22.5586 21.8086,-11.7031 41.6914,-22.9219 59.4297,-33.7305 20.9102,-12.7304 39.0391,-24.8906 54.1289,-36.5898 14.5508,-11.293 26.2227,-22.0898 34.75,-32.5313 6.0508,-7.3984 10.7305,-14.3906 14.3906,-21.2187 3.5391,-6.5898 6.1094,-13.0313 8.0508,-19.5508 2.3203,-7.8594 4.0899,-16.9492 5.6094,-27.1289 1.6289,-10.9414 2.9297,-22.582 4.3203,-35.1797 4.6992,-42.6328 6.7891,-85.5234 6.5703,-128.5117 -0.2187,-43.1016 -2.75,-86.7305 -7.3008,-130.6797 -4.5898,-44.3594 -11.2304,-88.9219 -19.6211,-133.4687 -8.4179,-44.7422 -18.5468,-89.293 -30.0781,-133.5 -1.6601,-6.3633 -3.6484,-12.0821 -6.0312,-16.7813 -1.6407,-3.2617 -3.3672,-5.8086 -5.1797,-7.4101 -0.418,-0.3711 -0.9688,-0.6797 -1.6602,-0.9102 -1.539,-0.4883 -3.5586,-0.7617 -6.1094,-0.7695 -10.0195,-0.059 -22.6914,-0.25 -38.0117,-0.5586 -15.6093,-0.3203 -33.8672,-0.7735 -54.7695,-1.3438 -17.9492,-0.4765 -36.957,-1.0273 -57.0586,-1.6367 -14.5312,-0.4414 -29.4219,-0.9023 -44.6914,-1.3828 z M 956.32422,728.46875 c 2.67187,10.88281 -3.97656,21.87109 -14.84766,24.54297 -10.875,2.66797 -21.86328,-3.97266 -24.53515,-14.85156 -2.33985,-9.41016 -4,-19.26954 -4.92188,-29.51954 -0.89844,-9.96875 -1.0625,-19.98046 -0.4375,-29.92968 0.48047,-7.6211 1.39063,-15.10938 2.70313,-22.44922 -4.76563,-1.47266 -9.62891,-2.70313 -14.57422,-3.70313 -9.44922,-1.89843 -19.50782,-2.89843 -30.08985,-2.89843 -41.86718,0 -79.76953,16.96875 -107.19922,44.41015 -27.43359,27.42969 -44.40234,65.32813 -44.40234,107.19922 0,41.85938 16.96875,79.76953 44.40234,107.19922 27.42969,27.42969 65.33594,44.40234 107.19922,44.40234 7.05078,0 13.60157,-0.41015 19.64063,-1.1914 6.10937,-0.78125 12.27344,-1.98828 18.45312,-3.58985 1.15625,-0.35156 2.36328,-0.60156 3.60938,-0.73047 11.13672,-1.23046 21.16406,6.80079 22.39062,17.94141 2.60157,22.84766 13.6836,43.16792 30.03907,57.75002 16.15234,14.3984 37.47659,23.1484 60.85549,23.1484 25.2617,0 48.1289,-10.2304 64.6797,-26.7773 16.5507,-16.5625 26.789,-39.4219 26.789,-64.69143 0,-4.71875 -0.3398,-9.26172 -0.9765,-13.58985 -0.6016,-4.10156 -1.4219,-7.94921 -2.4297,-11.53125 -0.9219,-2.32031 -1.4336,-4.84765 -1.4336,-7.50781 0,-11.22265 9.1015,-20.32031 20.332,-20.32031 h 388.0899 c -9.461,-19.58203 -14.7696,-41.55078 -14.7696,-64.75 0,-11.23047 9.1094,-20.33203 20.3282,-20.33203 11.2304,0 20.332,9.10156 20.332,20.33203 0,29.9375 12.1289,57.03906 31.75,76.66016 19.6211,19.60937 46.7187,31.75 76.6601,31.75 1.461,0 2.8789,0.14843 4.25,0.4375 28.1407,-1.69922 53.4688,-13.8086 72.1875,-32.52735 20.2305,-20.23047 32.7422,-48.17969 32.7422,-79.05078 0,-21.42969 -5.9804,-41.41016 -16.3515,-58.35156 -10.6094,-17.3086 -25.7578,-31.51953 -43.7696,-40.91797 -2.5976,-1.17188 -4.9882,-2.91016 -6.9804,-5.21094 -7.3203,-8.46094 -6.3985,-21.26172 2.0625,-28.58203 8.707,-7.53906 15.7773,-16.88672 20.6093,-27.45703 4.5977,-10.07031 7.1602,-21.38281 7.1602,-33.42969 0,-22.22265 -9,-42.33984 -23.5625,-56.90234 -14.5586,-14.55078 -34.668,-23.5586 -56.8867,-23.5586 -11.5821,0 -22.5313,2.41016 -32.3906,6.75 -9.9415,4.37891 -18.7813,10.6211 -26.0313,18.23829 -0.6914,0.88281 -1.4687,1.72265 -2.3398,2.5 -8.3321,7.49218 -21.1602,6.82031 -28.6602,-1.50782 -17.4219,-19.3125 -38.7695,-34.96093 -62.7617,-45.63281 -23,-10.22656 -48.5899,-15.91797 -75.6485,-15.91797 -26.6484,0 -51.8984,5.53125 -74.6679,15.5 -23.7031,10.3711 -44.8516,25.57031 -62.211,44.35156 l -0.012,-0.0117 -0.6992,0.73046 c -7.9805,7.84766 -20.8203,7.73829 -28.6719,-0.24218 -16.4765,-16.8086 -36.3398,-30.38672 -58.5,-39.69922 -21.25,-8.92969 -44.5976,-13.85938 -69.1289,-13.85938 -23.2695,0 -45.5,4.44141 -65.8711,12.51172 -0.8086,0.41797 -1.6562,0.78906 -2.5468,1.09766 l -1.1407,0.41015 c -11.7695,4.96875 -22.8906,11.16016 -33.1992,18.42188 -22.10546,15.57031 -40.52734,36.02734 -53.6914,59.82031 -8.54297,17.61719 -13.87109,37.16016 -15.17578,57.91016 -0.51563,8.25781 -0.41016,16.22656 0.27734,23.88672 0.69922,7.76172 2.03906,15.5625 3.96875,23.32031 z m -96.8086,264.79297 c -4.89843,102.16798 -9.82031,204.34768 -14.74218,306.50778 l -11.79688,245.0703 c -4.13281,86.0118 -8.28125,172.0508 -12.42578,258.0899 -5.95312,123.5391 -11.91016,247.0898 -17.82422,370.6016 48.79688,0.039 134.78906,0.207 220.78514,0.3906 161.5899,0.3164 322.75,0.3164 484.3399,-1.4531 76.3281,-0.8399 152.6797,-1.668 221.039,-1.8204 -4.8515,-100.5586 -9.6797,-201.1484 -14.5117,-301.7265 -5.1875,-108.043 -10.3789,-216.0821 -15.5898,-324.0821 l -26.9805,-559.46089 c -6.6875,0.90234 -13.5195,1.37109 -20.457,1.37109 -22.1016,0 -43.1914,-4.78125 -62.3008,-13.35156 -12.582,-5.66016 -24.2422,-12.92969 -34.711,-21.5586 h -397.6406 c 0.02,0.96094 0.031,1.92969 0.031,2.89063 0,36.48047 -14.7891,69.51953 -38.6992,93.42973 -23.9102,23.9101 -56.9415,38.6992 -93.4219,38.6992 -33.71487,0 -64.49612,-12.6602 -87.85159,-33.4805 -18.3164,-16.3281 -32.05469,-37.707 -39.05859,-61.98046 -1.11328,0.16015 -2.23047,0.3125 -3.35938,0.46093 -8.48047,1.08985 -16.73828,1.66016 -24.71875,1.66016 -3.39062,0 -6.75781,-0.0898 -10.10547,-0.25781 z M 1733.5195,2214.8086 c -311.5312,0 -623.0507,0 -934.57419,0 -2.60547,19.582 -3.26953,39.0195 -4.25781,58.7031 -1.22266,23.2578 21.37109,36.8164 41.76562,36.8164 h 861.63668 c 19.1602,0 45.0704,-12.039 42.6485,-35.039 -1.9102,-17.7305 -3.2695,-35.75 -6.0195,-52.961 z m 32.4024,-117.918 c 5.3086,70.461 8.5,106.8594 14.1992,174.1211 2.3789,21.9492 -3.9805,42 -20.1523,56.7969 -13.2579,12.1406 -31.3907,20.4023 -51.3477,22.5625 -3.7227,0.3984 -7.2422,0.6094 -10.5313,0.6094 H 836.45312 c -0.89843,0 -2.52734,-0.059 -4.88671,-0.1797 -21.9375,-1.1016 -41.50391,-9.4492 -55.67188,-22.332 -14.98047,-13.6172 -20.25781,-32.1875 -20.25781,-52.8399 0,-56.6875 7.4414,-121.6289 10.23828,-179.9687 4.71094,-98.1993 9.44531,-196.4219 14.17969,-294.6289 4.14843,-86.043 8.29687,-172.0821 12.42578,-258.1016 l 11.79687,-245.0703 c 4.99219,-103.6602 9.98828,-207.3399 14.96094,-311.00784 -32.83594,-8.90234 -62.19141,-26.28125 -85.55859,-49.64062 -34.79297,-34.78907 -56.3125,-82.85938 -56.3125,-135.94141 0,-53.08984 21.52343,-101.16016 56.3125,-135.94922 34.79297,-34.78906 82.85547,-56.30859 135.9414,-56.30859 12.73828,0 25.46485,1.32812 38.03125,3.84765 5.83203,1.17188 11.57032,2.60938 17.19532,4.28907 2.07031,-4.4375 4.28906,-8.79688 6.64453,-13.07032 5.43359,-10.94921 11.85156,-21.28906 19.13281,-30.92968 22.39453,-29.62891 52.9844,-52.57032 88.1563,-65.62891 26.1289,-11 54.8281,-17.07812 84.9179,-17.07812 30.0703,0 58.7305,6.05859 84.8516,17.02734 20.7187,8.70312 39.8398,20.53125 56.789,34.90234 18.0508,-16.33203 38.75,-29.80078 61.379,-39.71093 27.9101,-12.21875 58.6523,-19 90.871,-19 32.6915,0 63.8907,7 92.1719,19.57812 22.9883,10.23047 43.9375,24.14063 62.1094,40.97266 7.6289,-5.8711 15.9492,-10.83203 24.8008,-14.73047 14.9687,-6.58985 31.457,-10.25 48.75,-10.25 33.4375,0 63.7187,13.55859 85.6289,35.48047 21.918,21.91797 35.4805,52.19922 35.4805,85.64062 0,17.8086 -3.9297,34.83985 -10.9805,50.26953 -3.5313,7.70703 -7.8399,15 -12.832,21.73828 15.4414,11.57032 28.6015,25.99219 38.6914,42.46875 14.1992,23.19141 22.3906,50.40235 22.3906,79.47266 0,42.08984 -17.0703,80.19922 -44.6602,107.78906 -10.2617,10.26172 -21.9804,19.07032 -34.8125,26.08203 17.0625,0.54688 32.6914,1.03907 46.8711,1.46875 22.5391,0.6875 42.1797,1.25782 58.9219,1.71875 21.457,0.58204 39.5781,1.03125 54.3398,1.33985 15.0782,0.3125 26.8399,0.5 35.2696,0.55078 23.1679,0.12891 43.9179,3.89844 62.4687,10.69141 20.0196,7.32812 37.4805,18.11719 52.6524,31.63669 14.8203,13.211 26.9101,28.7305 36.6679,45.8711 10.3516,18.1602 18,38.1211 23.4414,59 12.5977,48.2813 23.6172,96.7227 32.7188,145.1211 9.1406,48.5781 16.3906,97.3086 21.4297,145.9883 5.082,49.1016 7.9101,98.3008 8.1523,147.4297 0.2383,49.25 -2.1211,98.0117 -7.4219,146.0625 -1.7304,15.6992 -3.3593,30.2578 -5.7812,45.5195 -2.3867,15.0781 -5.418,29.7188 -9.8672,44.7305 -4.9101,16.5781 -11.2305,32.6484 -19.7305,48.75 -8.4492,16.0078 -19.039,32.0195 -32.5625,48.5586 -15.3984,18.8515 -34.1601,36.832 -56.1171,54.3515 -21.5313,17.1875 -46.2696,34.0586 -74.043,50.9805 -49.3164,30.0391 -104.4297,57.8477 -152.5469,82.1289 -12.9297,6.5195 -25.4531,12.8399 -33.2695,16.8203 z M 1713.5,1008.3594 l 3.9219,81.1914 c 19.2265,0.6094 36.8867,1.168 52.9375,1.6484 21.1015,0.6289 40.0703,1.1797 56.9023,1.6406 21.2188,0.5821 39.4375,1.0196 54.6172,1.3321 15.4805,0.3164 27.9414,0.5078 37.3711,0.5586 6.8086,0.039 12.8398,0.9883 18.1719,2.6914 6.5976,2.0976 12.0273,5.2265 16.4375,9.1562 5.7187,5.0938 10.4687,11.7227 14.3906,19.4727 3.6797,7.289 6.6602,15.7383 9.0391,24.8906 11.832,45.3399 22.1797,90.8086 30.7226,136.1875 8.5664,45.5625 15.3789,91.2305 20.0977,136.8125 4.6406,44.8672 7.2304,89.8086 7.4609,134.6484 0.2188,44.961 -1.9101,89.3985 -6.7305,133.1211 -1.4687,13.3282 -2.8398,25.6172 -4.4882,36.6094 -1.7618,11.75 -3.9024,22.6016 -6.8828,32.6797 -2.7188,9.1797 -6.2969,18.1797 -11.2188,27.3398 -4.7891,8.9219 -10.8711,18.0118 -18.6797,27.5704 -10.5703,12.9414 -24.4609,25.8789 -41.4219,39.039 -16.4101,12.7305 -35.75,25.711 -57.7695,39.1289 -18.5781,11.3203 -39.0781,22.9024 -61.3476,34.8438 -21.4415,11.5 -43.9297,23.0664 -67.5118,34.8789 l 4.2696,88.7305 c 6.1914,-3.1407 11.6015,-5.8829 17.1406,-8.6719 47.4219,-23.9297 101.7422,-51.3399 149.6797,-80.5391 26.289,-16.0195 49.6601,-31.9414 69.9219,-48.1094 19.8281,-15.832 36.539,-31.7812 49.9296,-48.1718 11.711,-14.3282 20.8594,-28.1407 28.1094,-41.8789 7.211,-13.6485 12.5586,-27.2618 16.711,-41.2891 3.957,-13.3711 6.6601,-26.332 8.7578,-39.6523 2.082,-13.1172 3.7226,-27.7579 5.4726,-43.6172 5.1797,-46.9727 7.4766,-94.1719 7.2578,-141.4532 -0.2304,-47.3867 -3.0078,-95.289 -7.9882,-143.457 -4.9219,-47.4726 -12.0118,-95.082 -20.961,-142.6523 -8.9805,-47.7578 -19.7812,-95.2891 -32.082,-142.418 -4.5664,-17.5313 -10.918,-34.1602 -19.4688,-49.1602 -7.5703,-13.289 -16.9414,-25.3203 -28.4179,-35.5507 -11.4727,-10.2188 -24.6133,-18.3594 -39.6328,-23.8594 -14.4102,-5.2813 -30.5704,-8.1992 -48.6485,-8.3125 -9.0117,-0.047 -20.9805,-0.2266 -35.8984,-0.5469 -15.2422,-0.3203 -33.4102,-0.7695 -54.5,-1.3398 -17.711,-0.4805 -37.4219,-1.0508 -59.0938,-1.7227 -17.8672,-0.5391 -36.7265,-1.1289 -56.5781,-1.7695"
   stroke-linecap="round"
   id="path61" />
</g>
</g>
<g
   transform="matrix(0.67171787,0,0,0.72330186,159.06766,51.500761)"
   id="9d977871-e2bd-42b0-9ab6-1751648321d7">
		<text
   xml:space="preserve"
   font-family="Lato"
   font-size="40px"
   font-style="normal"
   font-weight="900"
   style="white-space:pre;opacity:1;fill:#000000;fill-rule:nonzero;stroke:none;stroke-width:1;stroke-linecap:butt;stroke-linejoin:miter;stroke-miterlimit:4;stroke-dasharray:none;stroke-dashoffset:0"
   id="text63"><tspan
     x="-97.099998"
     y="12.57"
     id="tspan63"
     style="fill:#ffffff">Craft Beer</tspan></text>
</g>
<path
   style="fill:#000000;fill-opacity:0;fill-rule:evenodd;stroke-width:0.300481"
   d="M -2.2536058,50.030048 V 0.15024038 H 122.59615 247.44591 V 50.030048 99.909856 H 122.59615 -2.2536058 Z M 68.656331,77.88268 c 1.552921,-0.531352 1.816472,-1.347617 1.462894,-4.530796 -0.163104,-1.468362 -0.18634,-2.759585 -0.05164,-2.869384 0.134703,-0.109799 1.326644,-0.65271 2.648759,-1.206472 5.754303,-2.41016 8.657485,-4.467984 9.88848,-7.009126 C 84.559067,58.232761 84.235866,49.46171 81.848105,41.73104 81.085545,39.262154 79.409601,37.368897 77.523045,36.845162 76.862534,36.661794 74.64998,36.51101 72.60626,36.51009 l -3.715853,-0.0017 1.086646,-1.202788 c 0.914039,-1.011734 1.086647,-1.420574 1.086647,-2.57384 0,-1.458471 -0.314255,-2.285932 -1.265216,-3.33144 -0.471016,-0.517843 -0.523741,-0.769965 -0.262933,-1.257289 0.837963,-1.565746 -0.05463,-3.796737 -1.862197,-4.654485 -1.163714,-0.552218 -3.079044,-0.65484 -4.208347,-0.22548 -0.563191,0.214126 -1.091547,0.09578 -2.347614,-0.525841 -2.292873,-1.13473 -5.730607,-1.148892 -7.985622,-0.0329 l -1.554381,0.769255 -1.148768,-0.589354 c -1.613549,-0.8278 -4.674054,-0.996279 -6.811319,-0.374959 -1.219727,0.354584 -2.112038,0.882171 -3.11116,1.839496 -1.343221,1.287033 -1.476049,1.342437 -3.225165,1.345251 -3.08875,0.005 -6.171842,1.927795 -6.657125,4.151834 -0.09639,0.441739 -0.220934,0.955534 -0.276767,1.141766 -0.207121,0.690848 0.509934,2.985664 1.226452,3.925069 0.4071,0.533735 1.413554,1.279345 2.236565,1.656908 1.431869,0.656884 1.496352,0.738378 1.495628,1.890163 -6.37e-4,1.013548 -0.407917,8.146511 -2.001205,35.048218 -0.179258,3.026661 -0.154828,3.225114 0.462326,3.756009 0.358368,0.308282 0.952806,0.648444 1.320971,0.75592 1.292043,0.377175 32.437223,0.249835 33.568506,-0.137248 z m 39.516749,-20.133491 1.80288,-0.658597 0.0873,-2.478588 c 0.048,-1.363224 -0.01,-2.478591 -0.12825,-2.478591 -0.11853,0 -0.93968,0.49875 -1.82477,1.108333 -1.98243,1.365351 -4.41586,1.693696 -6.21722,0.838894 -3.089751,-1.466184 -3.731064,-7.178296 -1.10138,-9.809925 1.8848,-1.886196 4.59768,-1.865096 7.39207,0.05749 0.71478,0.491782 1.44972,0.89415 1.63321,0.89415 0.22428,0 0.30501,-0.799706 0.24634,-2.440039 l -0.0873,-2.440036 -1.5024,-0.616208 c -2.27385,-0.932614 -7.24834,-0.916566 -9.314906,0.03005 -3.28409,1.504321 -4.962287,4.202031 -5.193305,8.348251 -0.282543,5.070941 1.712617,8.425162 5.901637,9.921719 1.793144,0.640616 6.196244,0.493825 8.306094,-0.276905 z m 24.88898,-0.01601 c 1.31522,-0.665853 1.40308,-0.675261 1.40308,-0.15024 0,0.500246 0.25936,0.560093 2.42726,0.560093 h 2.42726 l -0.0985,-5.634015 c -0.0811,-4.635363 -0.19029,-5.801658 -0.61618,-6.579804 -1.10473,-2.018462 -5.08901,-2.906256 -9.94761,-2.216578 l -2.60566,0.369874 v 1.957133 c 0,1.88641 0.0244,1.950169 0.67608,1.764396 4.27337,-1.218263 6.06168,-1.252575 7.17656,-0.137698 0.85904,0.859045 0.67882,1.161788 -0.69161,1.161788 -2.05014,0 -4.85921,0.597142 -6.12569,1.302181 -2.87096,1.598234 -2.96078,5.76315 -0.16458,7.631133 1.441,0.962648 4.20747,0.949913 6.13962,-0.02826 z m 29.00975,0.522533 c 0.91433,-0.182863 0.93901,-0.230991 0.93901,-1.831082 v -1.643281 l -1.42729,0.194336 c -2.37971,0.324015 -2.61001,-0.0277 -2.73018,-4.16963 l -0.10098,-3.480331 h 2.12923 2.12922 V 45.52284 43.719955 h -2.10337 -2.10336 V 41.76683 39.813705 h -2.40385 -2.40385 v 1.953125 1.953125 h -0.90144 -0.90144 v 1.802885 1.802884 h 0.90144 0.90144 l 0.0131,3.230168 c 0.0264,6.521635 0.90163,7.787864 5.43313,7.86052 0.92961,0.01491 2.11275,-0.05741 2.6292,-0.1607 z m 43.85322,-0.274561 1.55694,-0.462362 v -1.941484 c 0,-1.652353 -0.0783,-1.94006 -0.52584,-1.931929 -0.28921,0.0053 -0.77348,0.197235 -1.07616,0.426622 -0.89964,0.681815 -3.40239,1.150024 -4.92598,0.921548 -1.01236,-0.151812 -1.67319,-0.484378 -2.39321,-1.204396 -0.54707,-0.547074 -0.99467,-1.143414 -0.99467,-1.325205 0,-0.227422 1.59345,-0.330529 5.10817,-0.330529 h 5.10817 V 50.17064 c 0,-4.737773 -2.78325,-7.083624 -7.89587,-6.655 -4.18151,0.350565 -6.74031,2.760913 -7.05191,6.642788 -0.3011,3.751103 1.21078,6.496181 4.21358,7.650448 1.99169,0.765598 6.57905,0.854625 8.87678,0.172275 z m 16.93687,-0.02796 1.74747,-0.490315 v -1.913531 c 0,-2.191743 -0.17358,-2.297067 -2.13588,-1.295977 -2.49197,1.27131 -5.95354,1.022392 -7.16291,-0.515075 -1.22023,-1.551277 -1.0689,-1.60488 4.53062,-1.60488 h 5.14769 l -0.14165,-2.207211 c -0.26716,-4.162891 -2.18782,-6.146518 -6.23156,-6.435847 -2.90517,-0.207864 -5.10633,0.496499 -6.77912,2.169284 -1.62305,1.623056 -2.05012,2.982467 -1.90951,6.078228 0.0921,2.028686 0.23751,2.58548 0.93946,3.598398 0.81644,1.178119 2.49295,2.335364 4.07531,2.813062 1.44338,0.435739 6.07706,0.320992 7.92008,-0.196136 z M 117.9387,53.476148 c 0,-5.424459 -0.21595,-5.098744 3.38048,-5.098744 h 2.32879 l -7e-5,-2.328726 c -6e-5,-2.215132 -0.033,-2.328645 -0.67615,-2.327049 -1.07697,0.0027 -3.01058,0.618203 -3.87751,1.234348 -1.05773,0.751751 -1.15554,0.723431 -1.15554,-0.334583 v -0.901442 h -2.40384 -2.40385 v 7.211538 7.211539 h 2.40385 2.40384 z m 30.34856,-0.741773 v -5.408654 h 1.65264 1.65265 v -1.802884 -1.802885 h -1.80289 c -1.92355,0 -2.18704,-0.262428 -1.37539,-1.369853 0.35314,-0.481827 0.7451,-0.571601 2.25361,-0.516169 l 1.82611,0.0671 v -1.626217 -1.626214 l -1.38345,-0.207461 c -1.82242,-0.27329 -4.32942,0.0018 -5.49097,0.60241 -1.23196,0.637073 -1.88065,1.682076 -2.06624,3.328572 -0.14654,1.300094 -0.18778,1.347828 -1.16452,1.347828 h -1.01261 v 1.802885 1.802884 h 1.05168 1.05169 v 5.408654 5.408654 h 2.40384 2.40385 z m 37.89592,5.103356 c 2.75425,-0.765054 4.24965,-2.526529 4.39903,-5.181712 0.13072,-2.323714 -0.5564,-3.600878 -2.37545,-4.415292 -1.18439,-0.530264 -1.20763,-0.566541 -0.57868,-0.903149 0.97486,-0.521728 1.82265,-2.112317 1.82392,-3.421974 0.002,-1.82841 -0.76146,-3.07863 -2.35554,-3.858492 -1.27254,-0.622563 -1.90986,-0.694771 -7.03336,-0.796884 l -5.63401,-0.112286 v 9.497542 9.497545 l 5.33353,-0.0017 c 2.93344,-9.19e-4 5.8227,-0.137551 6.42056,-0.303621 z m 46.23869,-4.361583 c 0,-5.424459 -0.21594,-5.098744 3.38048,-5.098744 h 2.32879 l -6e-5,-2.328726 c -7e-5,-2.215132 -0.0331,-2.328645 -0.67615,-2.327049 -1.13902,0.0028 -2.80333,0.570444 -3.94577,1.345724 l -1.08729,0.737854 V 44.74994 43.694672 l -2.32872,0.08776 -2.32873,0.08776 -0.0806,7.136419 -0.0806,7.136418 h 2.40928 2.40928 z"
   id="path82"
   transform="translate(2.5)" /><path
   style="opacity:0;fill:#d3e3db;fill-opacity:1;fill-rule:evenodd;stroke-width:0.324584"
   d="M 69.818526,62.563645 C 69.713844,61.715668 69.407712,57.1512 69.138233,52.420382 68.868755,47.689564 68.584723,43.344191 68.507052,42.763996 l -0.14122,-1.054899 h 3.027186 c 2.407692,0 3.166294,0.116242 3.706939,0.568022 1.108388,0.926205 2.01029,5.343646 2.220038,10.873564 0.260453,6.866758 -0.09512,7.618396 -4.704769,9.945341 -1.099783,0.555168 -2.136127,1.009397 -2.302987,1.009397 -0.16686,0 -0.389031,-0.693799 -0.493713,-1.541776 z"
   id="path5"
   transform="translate(2.5)" /><path
   style="opacity:0;fill:#d3e3db;fill-opacity:1;fill-rule:evenodd;stroke-width:0.324584"
   d="M 69.818526,62.563645 C 69.713844,61.715668 69.407712,57.1512 69.138233,52.420382 68.868755,47.689564 68.584723,43.344191 68.507052,42.763996 l -0.14122,-1.054899 h 3.027186 c 2.407692,0 3.166294,0.116242 3.706939,0.568022 1.108388,0.926205 2.01029,5.343646 2.220038,10.873564 0.260453,6.866758 -0.09512,7.618396 -4.704769,9.945341 -1.099783,0.555168 -2.136127,1.009397 -2.302987,1.009397 -0.16686,0 -0.389031,-0.693799 -0.493713,-1.541776 z"
   id="path6"
   transform="translate(2.5)" /></svg>
