<?xml version="1.0" encoding="UTF-8"?>
<svg xmlns="http://www.w3.org/2000/svg" xmlns:xlink="http://www.w3.org/1999/xlink" width="283" height="283" viewBox="0 0 2834.65 2834.65">
<defs>
<clipPath id="clip-0">
<path clip-rule="nonzero" d="M 0 0 L 2834.648438 0 L 2834.648438 2834.648438 L 0 2834.648438 Z M 0 0 "/>
</clipPath>
<clipPath id="clip-1">
<path clip-rule="nonzero" d="M 781 931 L 1751 931 L 1751 2195 L 781 2195 Z M 781 931 "/>
</clipPath>
<clipPath id="clip-2">
<path clip-rule="evenodd" d="M 842.183594 931.511719 L 1689.5 931.511719 C 1699.351562 1135.648438 1709.191406 1339.878906 1719.039062 1543.890625 C 1729.5 1760.710938 1739.871094 1977.671875 1750.328125 2194.488281 C 1588.820312 2194.488281 1427.199219 2194.488281 1265.789062 2194.488281 C 1104.371094 2194.488281 942.851562 2194.488281 781.433594 2194.488281 C 791.800781 1977.671875 802.3125 1760.710938 812.726562 1543.890625 C 822.527344 1339.878906 832.414062 1135.648438 842.183594 931.511719 "/>
</clipPath>
<linearGradient id="linear-pattern-0" gradientUnits="userSpaceOnUse" x1="-0.27832" y1="0" x2="1.0872" y2="0" gradientTransform="matrix(-718.206, -6.77593, -6.77593, 718.206, 1556.35, 1566.03)">
<stop offset="0" stop-color="rgb(99.606323%, 66.665649%, 0%)" stop-opacity="1"/>
<stop offset="0.125" stop-color="rgb(99.606323%, 66.665649%, 0%)" stop-opacity="1"/>
<stop offset="0.1875" stop-color="rgb(99.606323%, 66.665649%, 0%)" stop-opacity="1"/>
<stop offset="0.21875" stop-color="rgb(99.610901%, 66.557312%, 0.0915527%)" stop-opacity="1"/>
<stop offset="0.234375" stop-color="rgb(99.61853%, 66.337585%, 0.279236%)" stop-opacity="1"/>
<stop offset="0.25" stop-color="rgb(99.627686%, 66.111755%, 0.471497%)" stop-opacity="1"/>
<stop offset="0.265625" stop-color="rgb(99.635315%, 65.885925%, 0.663757%)" stop-opacity="1"/>
<stop offset="0.28125" stop-color="rgb(99.64447%, 65.658569%, 0.856018%)" stop-opacity="1"/>
<stop offset="0.296875" stop-color="rgb(99.6521%, 65.432739%, 1.048279%)" stop-opacity="1"/>
<stop offset="0.3125" stop-color="rgb(99.661255%, 65.206909%, 1.242065%)" stop-opacity="1"/>
<stop offset="0.328125" stop-color="rgb(99.668884%, 64.981079%, 1.434326%)" stop-opacity="1"/>
<stop offset="0.34375" stop-color="rgb(99.67804%, 64.755249%, 1.626587%)" stop-opacity="1"/>
<stop offset="0.359375" stop-color="rgb(99.685669%, 64.529419%, 1.818848%)" stop-opacity="1"/>
<stop offset="0.375" stop-color="rgb(99.694824%, 64.303589%, 2.011108%)" stop-opacity="1"/>
<stop offset="0.390625" stop-color="rgb(99.702454%, 64.077759%, 2.203369%)" stop-opacity="1"/>
<stop offset="0.40625" stop-color="rgb(99.711609%, 63.851929%, 2.39563%)" stop-opacity="1"/>
<stop offset="0.421875" stop-color="rgb(99.719238%, 63.626099%, 2.587891%)" stop-opacity="1"/>
<stop offset="0.4375" stop-color="rgb(99.726868%, 63.400269%, 2.781677%)" stop-opacity="1"/>
<stop offset="0.453125" stop-color="rgb(99.736023%, 63.174438%, 2.973938%)" stop-opacity="1"/>
<stop offset="0.46875" stop-color="rgb(99.743652%, 62.948608%, 3.166199%)" stop-opacity="1"/>
<stop offset="0.484375" stop-color="rgb(99.752808%, 62.722778%, 3.358459%)" stop-opacity="1"/>
<stop offset="0.5" stop-color="rgb(99.760437%, 62.496948%, 3.55072%)" stop-opacity="1"/>
<stop offset="0.515625" stop-color="rgb(99.769592%, 62.271118%, 3.742981%)" stop-opacity="1"/>
<stop offset="0.53125" stop-color="rgb(99.777222%, 62.045288%, 3.935242%)" stop-opacity="1"/>
<stop offset="0.546875" stop-color="rgb(99.786377%, 61.819458%, 4.127502%)" stop-opacity="1"/>
<stop offset="0.5625" stop-color="rgb(99.794006%, 61.592102%, 4.321289%)" stop-opacity="1"/>
<stop offset="0.578125" stop-color="rgb(99.803162%, 61.366272%, 4.51355%)" stop-opacity="1"/>
<stop offset="0.59375" stop-color="rgb(99.810791%, 61.140442%, 4.705811%)" stop-opacity="1"/>
<stop offset="0.609375" stop-color="rgb(99.819946%, 60.914612%, 4.898071%)" stop-opacity="1"/>
<stop offset="0.625" stop-color="rgb(99.827576%, 60.688782%, 5.090332%)" stop-opacity="1"/>
<stop offset="0.640625" stop-color="rgb(99.836731%, 60.462952%, 5.282593%)" stop-opacity="1"/>
<stop offset="0.65625" stop-color="rgb(99.84436%, 60.237122%, 5.474854%)" stop-opacity="1"/>
<stop offset="0.671875" stop-color="rgb(99.853516%, 60.011292%, 5.667114%)" stop-opacity="1"/>
<stop offset="0.6875" stop-color="rgb(99.861145%, 59.785461%, 5.860901%)" stop-opacity="1"/>
<stop offset="0.703125" stop-color="rgb(99.8703%, 59.559631%, 6.053162%)" stop-opacity="1"/>
<stop offset="0.71875" stop-color="rgb(99.87793%, 59.333801%, 6.245422%)" stop-opacity="1"/>
<stop offset="0.734375" stop-color="rgb(99.887085%, 59.107971%, 6.437683%)" stop-opacity="1"/>
<stop offset="0.75" stop-color="rgb(99.894714%, 58.882141%, 6.629944%)" stop-opacity="1"/>
<stop offset="0.765625" stop-color="rgb(99.90387%, 58.656311%, 6.822205%)" stop-opacity="1"/>
<stop offset="0.78125" stop-color="rgb(99.911499%, 58.430481%, 7.014465%)" stop-opacity="1"/>
<stop offset="0.796875" stop-color="rgb(99.920654%, 58.204651%, 7.206726%)" stop-opacity="1"/>
<stop offset="0.8125" stop-color="rgb(99.928284%, 57.978821%, 7.398987%)" stop-opacity="1"/>
<stop offset="0.828125" stop-color="rgb(99.937439%, 57.752991%, 7.592773%)" stop-opacity="1"/>
<stop offset="0.84375" stop-color="rgb(99.945068%, 57.525635%, 7.785034%)" stop-opacity="1"/>
<stop offset="0.859375" stop-color="rgb(99.954224%, 57.299805%, 7.977295%)" stop-opacity="1"/>
<stop offset="0.875" stop-color="rgb(99.961853%, 57.073975%, 8.169556%)" stop-opacity="1"/>
<stop offset="0.890625" stop-color="rgb(99.971008%, 56.848145%, 8.361816%)" stop-opacity="1"/>
<stop offset="0.90625" stop-color="rgb(99.978638%, 56.622314%, 8.554077%)" stop-opacity="1"/>
<stop offset="0.921875" stop-color="rgb(99.986267%, 56.396484%, 8.746338%)" stop-opacity="1"/>
<stop offset="0.9375" stop-color="rgb(99.995422%, 56.17981%, 8.930969%)" stop-opacity="1"/>
<stop offset="1" stop-color="rgb(100%, 56.077576%, 9.01947%)" stop-opacity="1"/>
</linearGradient>
</defs>
<g clip-path="url(#clip-0)">
<path fill-rule="evenodd" fill="rgb(100%, 100%, 100%)" fill-opacity="1" d="M 0 0 L 2834.648438 0 L 2834.648438 2834.648438 L 0 2834.648438 L 0 0 "/>
</g>
<path fill-rule="nonzero" fill="rgb(100%, 100%, 100%)" fill-opacity="1" d="M 1713.5 1008.359375 L 1717.421875 1089.550781 C 1736.648438 1090.160156 1754.308594 1090.71875 1770.359375 1091.199219 C 1791.460938 1091.828125 1810.429688 1092.378906 1827.261719 1092.839844 C 1848.488281 1093.421875 1866.699219 1093.859375 1881.878906 1094.171875 C 1897.359375 1094.488281 1909.820312 1094.679688 1919.25 1094.730469 C 1926.058594 1094.769531 1932.089844 1095.71875 1937.421875 1097.421875 C 1944.03125 1099.519531 1949.449219 1102.648438 1953.859375 1106.578125 C 1959.578125 1111.671875 1964.328125 1118.300781 1968.25 1126.050781 C 1971.929688 1133.339844 1974.910156 1141.789062 1977.289062 1150.941406 C 1989.121094 1196.28125 1999.46875 1241.75 2008.011719 1287.128906 C 2016.578125 1332.691406 2023.390625 1378.359375 2028.109375 1423.941406 C 2032.75 1468.808594 2035.339844 1513.75 2035.570312 1558.589844 C 2035.800781 1603.550781 2033.660156 1647.988281 2028.839844 1691.710938 C 2027.371094 1705.039062 2026 1717.328125 2024.351562 1728.320312 C 2022.589844 1740.070312 2020.460938 1750.921875 2017.46875 1761 C 2014.75 1770.179688 2011.171875 1779.179688 2006.261719 1788.339844 C 2001.460938 1797.261719 1995.390625 1806.351562 1987.570312 1815.910156 C 1977 1828.851562 1963.109375 1841.789062 1946.160156 1854.949219 C 1929.738281 1867.679688 1910.410156 1880.660156 1888.378906 1894.078125 C 1869.800781 1905.398438 1849.300781 1916.980469 1827.03125 1928.921875 C 1805.589844 1940.421875 1783.101562 1951.988281 1759.519531 1963.800781 L 1763.789062 2052.53125 C 1769.980469 2049.390625 1775.390625 2046.648438 1780.929688 2043.859375 C 1828.359375 2019.929688 1882.679688 1992.519531 1930.621094 1963.320312 C 1956.910156 1947.300781 1980.28125 1931.378906 2000.53125 1915.210938 C 2020.359375 1899.378906 2037.070312 1883.429688 2050.460938 1867.039062 C 2062.171875 1852.710938 2071.320312 1838.898438 2078.570312 1825.160156 C 2085.78125 1811.511719 2091.128906 1797.898438 2095.289062 1783.871094 C 2099.238281 1770.5 2101.941406 1757.539062 2104.050781 1744.21875 C 2106.128906 1731.101562 2107.761719 1716.460938 2109.511719 1700.601562 C 2114.691406 1653.628906 2117 1606.429688 2116.769531 1559.148438 C 2116.539062 1511.761719 2113.761719 1463.859375 2108.78125 1415.691406 C 2103.871094 1368.21875 2096.769531 1320.609375 2087.820312 1273.039062 C 2078.839844 1225.28125 2068.039062 1177.75 2055.738281 1130.621094 C 2051.171875 1113.089844 2044.820312 1096.460938 2036.269531 1081.460938 C 2028.699219 1068.171875 2019.328125 1056.140625 2007.851562 1045.910156 C 1996.378906 1035.691406 1983.238281 1027.550781 1968.21875 1022.050781 C 1953.808594 1016.769531 1937.648438 1013.851562 1919.570312 1013.738281 C 1910.558594 1013.691406 1898.589844 1013.511719 1883.671875 1013.191406 C 1868.429688 1012.871094 1850.261719 1012.421875 1829.171875 1011.851562 C 1811.460938 1011.371094 1791.761719 1010.800781 1770.078125 1010.128906 C 1752.210938 1009.589844 1733.351562 1009 1713.5 1008.359375 "/>
<path fill-rule="nonzero" fill="rgb(100%, 100%, 100%)" fill-opacity="1" d="M 1733.941406 2214.808594 C 1422.421875 2214.808594 1110.898438 2214.808594 799.371094 2214.808594 C 796.765625 2234.390625 796.101562 2253.828125 795.113281 2273.511719 C 793.890625 2296.769531 816.484375 2310.328125 836.878906 2310.328125 L 1698.519531 2310.328125 C 1717.679688 2310.328125 1743.589844 2298.289062 1741.171875 2275.289062 C 1739.25 2257.558594 1737.890625 2239.539062 1735.140625 2222.328125 L 1733.941406 2214.808594 "/>
<g clip-path="url(#clip-1)">
<g clip-path="url(#clip-2)">
<path fill-rule="nonzero" fill="url(#linear-pattern-0)" d="M 1762.246094 931.621094 L 1750.242188 2203.628906 L 769.519531 2194.378906 L 781.519531 922.371094 Z M 1762.246094 931.621094 "/>
</g>
</g>
<path fill-rule="evenodd" fill="rgb(100%, 100%, 100%)" fill-opacity="1" d="M 842.183594 931.511719 L 1689.5 931.511719 L 1701.101562 1172.019531 C 1370.289062 965.371094 1164.828125 1310.921875 830.632812 1172.019531 C 834.492188 1091.851562 838.347656 1011.671875 842.183594 931.511719 "/>
<path fill-rule="evenodd" fill="rgb(100%, 100%, 100%)" fill-opacity="1" d="M 869.621094 629.339844 C 893.253906 629.339844 915.769531 634.109375 936.265625 642.730469 C 963.792969 565.808594 1037.308594 510.761719 1123.699219 510.761719 C 1179.359375 510.761719 1229.671875 533.621094 1265.789062 570.441406 C 1303.539062 529.578125 1357.570312 503.988281 1417.589844 503.988281 C 1478.511719 503.988281 1533.261719 530.359375 1571.089844 572.289062 C 1589.511719 552.179688 1615.988281 539.558594 1645.421875 539.558594 C 1701.078125 539.558594 1746.199219 584.691406 1746.199219 640.351562 C 1746.199219 670.789062 1732.699219 698.078125 1711.371094 716.558594 C 1754.160156 738.429688 1783.46875 782.941406 1783.46875 834.300781 C 1783.46875 907.269531 1724.320312 966.421875 1651.351562 966.421875 C 1612.089844 966.421875 1576.839844 949.289062 1552.640625 922.109375 L 1131.570312 922.109375 C 1134.710938 932.429688 1136.410156 943.378906 1136.410156 954.730469 C 1136.410156 1016.480469 1086.351562 1066.53125 1024.609375 1066.53125 C 967.191406 1066.53125 919.894531 1023.238281 913.546875 967.519531 C 899.523438 971.21875 884.804688 973.191406 869.621094 973.191406 C 774.667969 973.191406 697.695312 896.21875 697.695312 801.269531 C 697.695312 706.308594 774.667969 629.339844 869.621094 629.339844 "/>
<path fill-rule="evenodd" fill="rgb(100%, 100%, 100%)" fill-opacity="1" d="M 1227.910156 1608.21875 C 1259.328125 1608.21875 1284.808594 1633.699219 1284.808594 1665.128906 C 1284.808594 1696.550781 1259.328125 1722.03125 1227.910156 1722.03125 C 1196.480469 1722.03125 1171 1696.550781 1171 1665.128906 C 1171 1633.699219 1196.480469 1608.21875 1227.910156 1608.21875 Z M 968.851562 1629.191406 C 1000.28125 1629.191406 1025.75 1654.660156 1025.75 1686.089844 C 1025.75 1717.511719 1000.28125 1742.988281 968.851562 1742.988281 C 937.425781 1742.988281 911.949219 1717.511719 911.949219 1686.089844 C 911.949219 1654.660156 937.429688 1629.191406 968.851562 1629.191406 Z M 1127.578125 1931.660156 C 1154.039062 1931.660156 1175.5 1953.121094 1175.5 1979.578125 C 1175.5 2006.039062 1154.039062 2027.5 1127.578125 2027.5 C 1101.109375 2027.5 1079.660156 2006.039062 1079.660156 1979.578125 C 1079.660156 1953.121094 1101.109375 1931.660156 1127.578125 1931.660156 Z M 1091.640625 1799.890625 C 1108.179688 1799.890625 1121.589844 1813.300781 1121.589844 1829.839844 C 1121.589844 1846.378906 1108.179688 1859.789062 1091.640625 1859.789062 C 1075.101562 1859.789062 1061.691406 1846.378906 1061.691406 1829.839844 C 1061.691406 1813.300781 1075.101562 1799.890625 1091.640625 1799.890625 Z M 1111.480469 1679.351562 C 1129.46875 1679.351562 1144.050781 1693.929688 1144.050781 1711.921875 C 1144.050781 1729.910156 1129.46875 1744.488281 1111.480469 1744.488281 C 1093.488281 1744.488281 1078.910156 1729.910156 1078.910156 1711.921875 C 1078.910156 1693.929688 1093.488281 1679.351562 1111.480469 1679.351562 Z M 1147.421875 1471.210938 C 1165.410156 1471.210938 1179.988281 1485.789062 1179.988281 1503.78125 C 1179.988281 1521.761719 1165.410156 1536.351562 1147.421875 1536.351562 C 1129.429688 1536.351562 1114.851562 1521.761719 1114.851562 1503.78125 C 1114.851562 1485.789062 1129.429688 1471.210938 1147.421875 1471.210938 Z M 1000.300781 1382.109375 C 1028.421875 1382.109375 1051.210938 1404.910156 1051.210938 1433.03125 C 1051.210938 1461.140625 1028.421875 1483.941406 1000.300781 1483.941406 C 972.183594 1483.941406 949.390625 1461.140625 949.390625 1433.03125 C 949.390625 1404.910156 972.183594 1382.109375 1000.300781 1382.109375 Z M 1287.800781 1341.679688 C 1319.230469 1341.679688 1344.710938 1367.160156 1344.710938 1398.578125 C 1344.710938 1430.011719 1319.230469 1455.488281 1287.800781 1455.488281 C 1256.378906 1455.488281 1230.898438 1430.011719 1230.898438 1398.578125 C 1230.898438 1367.160156 1256.378906 1341.679688 1287.800781 1341.679688 "/>
<path fill-rule="evenodd" fill="rgb(70.117188%, 70.117188%, 70.117188%)" fill-opacity="1" d="M 1120.199219 555.570312 C 1173.351562 555.570312 1219.550781 585.261719 1243.140625 628.96875 C 1217.039062 594.148438 1175.441406 571.628906 1128.578125 571.628906 C 1049.550781 571.628906 985.484375 635.691406 985.484375 714.71875 C 985.484375 722.820312 986.171875 730.761719 987.464844 738.5 C 983.015625 724.859375 980.601562 710.300781 980.601562 695.171875 C 980.601562 618.070312 1043.101562 555.570312 1120.199219 555.570312 "/>
<path fill-rule="evenodd" fill="rgb(70.117188%, 70.117188%, 70.117188%)" fill-opacity="1" d="M 761.179688 729.5 C 789.273438 687.191406 837.339844 666.109375 884.597656 670.429688 C 843.085938 672.808594 803.160156 694.019531 778.390625 731.320312 C 736.613281 794.230469 753.75 879.101562 816.664062 920.878906 C 823.113281 925.160156 829.800781 928.820312 836.644531 931.878906 C 823.433594 928.210938 810.5625 922.429688 798.519531 914.441406 C 737.140625 873.679688 720.421875 790.878906 761.179688 729.5 "/>
<path fill-rule="evenodd" fill="rgb(70.117188%, 70.117188%, 70.117188%)" fill-opacity="1" d="M 1645.710938 574.941406 C 1681.949219 574.941406 1711.328125 604.320312 1711.328125 640.558594 C 1711.328125 661.761719 1701.269531 680.609375 1685.660156 692.609375 C 1696.839844 680.839844 1703.699219 664.929688 1703.699219 647.421875 C 1703.699219 611.191406 1674.320312 581.808594 1638.089844 581.808594 C 1623.050781 581.808594 1609.199219 586.871094 1598.140625 595.378906 C 1610.089844 582.789062 1626.988281 574.941406 1645.710938 574.941406 "/>
<path fill-rule="nonzero" fill="rgb(19.993591%, 17.259216%, 16.868591%)" fill-opacity="1" d="M 1724.558594 1130.308594 L 1734.46875 1325.351562 C 1738.589844 1406.449219 1742.679688 1486.800781 1748.519531 1601.371094 L 1764.550781 1915.75 C 1779.921875 1907.929688 1794.371094 1900.398438 1807.820312 1893.191406 C 1829.628906 1881.488281 1849.511719 1870.269531 1867.25 1859.460938 C 1888.160156 1846.730469 1906.289062 1834.570312 1921.378906 1822.871094 C 1935.929688 1811.578125 1947.601562 1800.78125 1956.128906 1790.339844 C 1962.179688 1782.941406 1966.859375 1775.949219 1970.519531 1769.121094 C 1974.058594 1762.53125 1976.628906 1756.089844 1978.570312 1749.570312 C 1980.890625 1741.710938 1982.660156 1732.621094 1984.179688 1722.441406 C 1985.808594 1711.5 1987.109375 1699.859375 1988.5 1687.261719 C 1993.199219 1644.628906 1995.289062 1601.738281 1995.070312 1558.75 C 1994.851562 1515.648438 1992.320312 1472.019531 1987.769531 1428.070312 C 1983.179688 1383.710938 1976.539062 1339.148438 1968.148438 1294.601562 C 1959.730469 1249.859375 1949.601562 1205.308594 1938.070312 1161.101562 C 1936.410156 1154.738281 1934.421875 1149.019531 1932.039062 1144.320312 C 1930.398438 1141.058594 1928.671875 1138.511719 1926.859375 1136.910156 C 1926.441406 1136.539062 1925.890625 1136.230469 1925.199219 1136 C 1923.660156 1135.511719 1921.640625 1135.238281 1919.089844 1135.230469 C 1909.070312 1135.171875 1896.398438 1134.980469 1881.078125 1134.671875 C 1865.46875 1134.351562 1847.210938 1133.898438 1826.308594 1133.328125 C 1808.359375 1132.851562 1789.351562 1132.300781 1769.25 1131.691406 C 1754.71875 1131.25 1739.828125 1130.789062 1724.558594 1130.308594 Z M 956.324219 728.46875 C 958.996094 739.351562 952.347656 750.339844 941.476562 753.011719 C 930.601562 755.679688 919.613281 749.039062 916.941406 738.160156 C 914.601562 728.75 912.941406 718.890625 912.019531 708.640625 C 911.121094 698.671875 910.957031 688.660156 911.582031 678.710938 C 912.0625 671.089844 912.972656 663.601562 914.285156 656.261719 C 909.519531 654.789062 904.65625 653.558594 899.710938 652.558594 C 890.261719 650.660156 880.203125 649.660156 869.621094 649.660156 C 827.753906 649.660156 789.851562 666.628906 762.421875 694.070312 C 734.988281 721.5 718.019531 759.398438 718.019531 801.269531 C 718.019531 843.128906 734.988281 881.039062 762.421875 908.46875 C 789.851562 935.898438 827.757812 952.871094 869.621094 952.871094 C 876.671875 952.871094 883.222656 952.460938 889.261719 951.679688 C 895.371094 950.898438 901.535156 949.691406 907.714844 948.089844 C 908.871094 947.738281 910.078125 947.488281 911.324219 947.359375 C 922.460938 946.128906 932.488281 954.160156 933.714844 965.300781 C 936.316406 988.148438 947.398438 1008.46875 963.753906 1023.050781 C 979.90625 1037.449219 1001.230469 1046.199219 1024.609375 1046.199219 C 1049.871094 1046.199219 1072.738281 1035.96875 1089.289062 1019.421875 C 1105.839844 1002.859375 1116.078125 980 1116.078125 954.730469 C 1116.078125 950.011719 1115.738281 945.46875 1115.101562 941.140625 C 1114.5 937.039062 1113.679688 933.191406 1112.671875 929.609375 C 1111.75 927.289062 1111.238281 924.761719 1111.238281 922.101562 C 1111.238281 910.878906 1120.339844 901.78125 1131.570312 901.78125 L 1519.660156 901.78125 C 1510.199219 882.199219 1504.890625 860.230469 1504.890625 837.03125 C 1504.890625 825.800781 1514 816.699219 1525.21875 816.699219 C 1536.449219 816.699219 1545.550781 825.800781 1545.550781 837.03125 C 1545.550781 866.96875 1557.679688 894.070312 1577.300781 913.691406 C 1596.921875 933.300781 1624.019531 945.441406 1653.960938 945.441406 C 1655.421875 945.441406 1656.839844 945.589844 1658.210938 945.878906 C 1686.351562 944.179688 1711.679688 932.070312 1730.398438 913.351562 C 1750.628906 893.121094 1763.140625 865.171875 1763.140625 834.300781 C 1763.140625 812.871094 1757.160156 792.890625 1746.789062 775.949219 C 1736.179688 758.640625 1721.03125 744.429688 1703.019531 735.03125 C 1700.421875 733.859375 1698.03125 732.121094 1696.039062 729.820312 C 1688.71875 721.359375 1689.640625 708.558594 1698.101562 701.238281 C 1706.808594 693.699219 1713.878906 684.351562 1718.710938 673.78125 C 1723.308594 663.710938 1725.871094 652.398438 1725.871094 640.351562 C 1725.871094 618.128906 1716.871094 598.011719 1702.308594 583.449219 C 1687.75 568.898438 1667.640625 559.890625 1645.421875 559.890625 C 1633.839844 559.890625 1622.890625 562.300781 1613.03125 566.640625 C 1603.089844 571.019531 1594.25 577.261719 1587 584.878906 C 1586.308594 585.761719 1585.53125 586.601562 1584.660156 587.378906 C 1576.328125 594.871094 1563.5 594.199219 1556 585.871094 C 1538.578125 566.558594 1517.230469 550.910156 1493.238281 540.238281 C 1470.238281 530.011719 1444.648438 524.320312 1417.589844 524.320312 C 1390.941406 524.320312 1365.691406 529.851562 1342.921875 539.820312 C 1319.21875 550.191406 1298.070312 565.390625 1280.710938 584.171875 L 1280.699219 584.160156 L 1280 584.890625 C 1272.019531 592.738281 1259.179688 592.628906 1251.328125 584.648438 C 1234.851562 567.839844 1214.988281 554.261719 1192.828125 544.949219 C 1171.578125 536.019531 1148.230469 531.089844 1123.699219 531.089844 C 1100.429688 531.089844 1078.199219 535.53125 1057.828125 543.601562 C 1057.019531 544.019531 1056.171875 544.390625 1055.28125 544.699219 L 1054.140625 545.109375 C 1042.371094 550.078125 1031.25 556.269531 1020.941406 563.53125 C 998.835938 579.101562 980.414062 599.558594 967.25 623.351562 C 958.707031 640.96875 953.378906 660.511719 952.074219 681.261719 C 951.558594 689.519531 951.664062 697.488281 952.351562 705.148438 C 953.050781 712.910156 954.390625 720.710938 956.320312 728.46875 Z M 859.515625 993.261719 C 854.617188 1095.429688 849.695312 1197.609375 844.773438 1299.769531 L 832.976562 1544.839844 C 828.84375 1630.851562 824.695312 1716.890625 820.550781 1802.929688 C 814.597656 1926.46875 808.640625 2050.019531 802.726562 2173.53125 C 851.523438 2173.570312 937.515625 2173.738281 1023.511719 2173.921875 C 1185.101562 2174.238281 1346.261719 2174.238281 1507.851562 2172.46875 C 1584.179688 2171.628906 1660.53125 2170.800781 1728.890625 2170.648438 C 1724.039062 2070.089844 1719.210938 1969.5 1714.378906 1868.921875 C 1709.191406 1760.878906 1704 1652.839844 1698.789062 1544.839844 L 1671.808594 985.378906 C 1665.121094 986.28125 1658.289062 986.75 1651.351562 986.75 C 1629.25 986.75 1608.160156 981.96875 1589.050781 973.398438 C 1576.46875 967.738281 1564.808594 960.46875 1554.339844 951.839844 L 1156.699219 951.839844 C 1156.71875 952.800781 1156.730469 953.769531 1156.730469 954.730469 C 1156.730469 991.210938 1141.941406 1024.25 1118.03125 1048.160156 C 1094.121094 1072.070312 1061.089844 1086.859375 1024.609375 1086.859375 C 990.894531 1086.859375 960.113281 1074.199219 936.757812 1053.378906 C 918.441406 1037.050781 904.703125 1015.671875 897.699219 991.398438 C 896.585938 991.558594 895.46875 991.710938 894.339844 991.859375 C 885.859375 992.949219 877.601562 993.519531 869.621094 993.519531 C 866.230469 993.519531 862.863281 993.429688 859.515625 993.261719 Z M 1733.519531 2214.808594 C 1421.988281 2214.808594 1110.46875 2214.808594 798.945312 2214.808594 C 796.339844 2234.390625 795.675781 2253.828125 794.6875 2273.511719 C 793.464844 2296.769531 816.058594 2310.328125 836.453125 2310.328125 L 1698.089844 2310.328125 C 1717.25 2310.328125 1743.160156 2298.289062 1740.738281 2275.289062 C 1738.828125 2257.558594 1737.46875 2239.539062 1734.71875 2222.328125 Z M 1765.921875 2096.890625 C 1771.230469 2167.351562 1774.421875 2203.75 1780.121094 2271.011719 C 1782.5 2292.960938 1776.140625 2313.011719 1759.96875 2327.808594 C 1746.710938 2339.949219 1728.578125 2348.210938 1708.621094 2350.371094 C 1704.898438 2350.769531 1701.378906 2350.980469 1698.089844 2350.980469 L 836.453125 2350.980469 C 835.554688 2350.980469 833.925781 2350.921875 831.566406 2350.800781 C 809.628906 2349.699219 790.0625 2341.351562 775.894531 2328.46875 C 760.914062 2314.851562 755.636719 2296.28125 755.636719 2275.628906 C 755.636719 2218.941406 763.078125 2154 765.875 2095.660156 C 770.585938 1997.460938 775.320312 1899.238281 780.054688 1801.03125 C 784.203125 1714.988281 788.351562 1628.949219 792.480469 1542.929688 L 804.277344 1297.859375 C 809.269531 1194.199219 814.265625 1090.519531 819.238281 986.851562 C 786.402344 977.949219 757.046875 960.570312 733.679688 937.210938 C 698.886719 902.421875 677.367188 854.351562 677.367188 801.269531 C 677.367188 748.179688 698.890625 700.109375 733.679688 665.320312 C 768.472656 630.53125 816.535156 609.011719 869.621094 609.011719 C 882.359375 609.011719 895.085938 610.339844 907.652344 612.859375 C 913.484375 614.03125 919.222656 615.46875 924.847656 617.148438 C 926.917969 612.710938 929.136719 608.351562 931.492188 604.078125 C 936.925781 593.128906 943.34375 582.789062 950.625 573.148438 C 973.019531 543.519531 1003.609375 520.578125 1038.78125 507.519531 C 1064.910156 496.519531 1093.609375 490.441406 1123.699219 490.441406 C 1153.769531 490.441406 1182.429688 496.5 1208.550781 507.46875 C 1229.269531 516.171875 1248.390625 528 1265.339844 542.371094 C 1283.390625 526.039062 1304.089844 512.570312 1326.71875 502.660156 C 1354.628906 490.441406 1385.371094 483.660156 1417.589844 483.660156 C 1450.28125 483.660156 1481.480469 490.660156 1509.761719 503.238281 C 1532.75 513.46875 1553.699219 527.378906 1571.871094 544.210938 C 1579.5 538.339844 1587.820312 533.378906 1596.671875 529.480469 C 1611.640625 522.890625 1628.128906 519.230469 1645.421875 519.230469 C 1678.859375 519.230469 1709.140625 532.789062 1731.050781 554.710938 C 1752.96875 576.628906 1766.53125 606.910156 1766.53125 640.351562 C 1766.53125 658.160156 1762.601562 675.191406 1755.550781 690.621094 C 1752.019531 698.328125 1747.710938 705.621094 1742.71875 712.359375 C 1758.160156 723.929688 1771.320312 738.351562 1781.410156 754.828125 C 1795.609375 778.019531 1803.800781 805.230469 1803.800781 834.300781 C 1803.800781 876.390625 1786.730469 914.5 1759.140625 942.089844 C 1748.878906 952.351562 1737.160156 961.160156 1724.328125 968.171875 C 1741.390625 968.71875 1757.019531 969.210938 1771.199219 969.640625 C 1793.738281 970.328125 1813.378906 970.898438 1830.121094 971.359375 C 1851.578125 971.941406 1869.699219 972.390625 1884.460938 972.699219 C 1899.539062 973.011719 1911.300781 973.199219 1919.730469 973.25 C 1942.898438 973.378906 1963.648438 977.148438 1982.199219 983.941406 C 2002.21875 991.269531 2019.679688 1002.058594 2034.851562 1015.578125 C 2049.671875 1028.789062 2061.761719 1044.308594 2071.519531 1061.449219 C 2081.871094 1079.609375 2089.519531 1099.570312 2094.960938 1120.449219 C 2107.558594 1168.730469 2118.578125 1217.171875 2127.679688 1265.570312 C 2136.820312 1314.148438 2144.070312 1362.878906 2149.109375 1411.558594 C 2154.191406 1460.660156 2157.019531 1509.859375 2157.261719 1558.988281 C 2157.5 1608.238281 2155.140625 1657 2149.839844 1705.050781 C 2148.109375 1720.75 2146.480469 1735.308594 2144.058594 1750.570312 C 2141.671875 1765.648438 2138.640625 1780.289062 2134.191406 1795.300781 C 2129.28125 1811.878906 2122.960938 1827.949219 2114.460938 1844.050781 C 2106.011719 1860.058594 2095.421875 1876.070312 2081.898438 1892.609375 C 2066.5 1911.460938 2047.738281 1929.441406 2025.78125 1946.960938 C 2004.25 1964.148438 1979.511719 1981.019531 1951.738281 1997.941406 C 1902.421875 2027.980469 1847.308594 2055.789062 1799.191406 2080.070312 C 1786.261719 2086.589844 1773.738281 2092.910156 1765.921875 2096.890625 Z M 1713.5 1008.359375 L 1717.421875 1089.550781 C 1736.648438 1090.160156 1754.308594 1090.71875 1770.359375 1091.199219 C 1791.460938 1091.828125 1810.429688 1092.378906 1827.261719 1092.839844 C 1848.480469 1093.421875 1866.699219 1093.859375 1881.878906 1094.171875 C 1897.359375 1094.488281 1909.820312 1094.679688 1919.25 1094.730469 C 1926.058594 1094.769531 1932.089844 1095.71875 1937.421875 1097.421875 C 1944.019531 1099.519531 1949.449219 1102.648438 1953.859375 1106.578125 C 1959.578125 1111.671875 1964.328125 1118.300781 1968.25 1126.050781 C 1971.929688 1133.339844 1974.910156 1141.789062 1977.289062 1150.941406 C 1989.121094 1196.28125 1999.46875 1241.75 2008.011719 1287.128906 C 2016.578125 1332.691406 2023.390625 1378.359375 2028.109375 1423.941406 C 2032.75 1468.808594 2035.339844 1513.75 2035.570312 1558.589844 C 2035.789062 1603.550781 2033.660156 1647.988281 2028.839844 1691.710938 C 2027.371094 1705.039062 2026 1717.328125 2024.351562 1728.320312 C 2022.589844 1740.070312 2020.449219 1750.921875 2017.46875 1761 C 2014.75 1770.179688 2011.171875 1779.179688 2006.25 1788.339844 C 2001.460938 1797.261719 1995.378906 1806.351562 1987.570312 1815.910156 C 1977 1828.851562 1963.109375 1841.789062 1946.148438 1854.949219 C 1929.738281 1867.679688 1910.398438 1880.660156 1888.378906 1894.078125 C 1869.800781 1905.398438 1849.300781 1916.980469 1827.03125 1928.921875 C 1805.589844 1940.421875 1783.101562 1951.988281 1759.519531 1963.800781 L 1763.789062 2052.53125 C 1769.980469 2049.390625 1775.390625 2046.648438 1780.929688 2043.859375 C 1828.351562 2019.929688 1882.671875 1992.519531 1930.609375 1963.320312 C 1956.898438 1947.300781 1980.269531 1931.378906 2000.53125 1915.210938 C 2020.359375 1899.378906 2037.070312 1883.429688 2050.460938 1867.039062 C 2062.171875 1852.710938 2071.320312 1838.898438 2078.570312 1825.160156 C 2085.78125 1811.511719 2091.128906 1797.898438 2095.28125 1783.871094 C 2099.238281 1770.5 2101.941406 1757.539062 2104.039062 1744.21875 C 2106.121094 1731.101562 2107.761719 1716.460938 2109.511719 1700.601562 C 2114.691406 1653.628906 2116.988281 1606.429688 2116.769531 1559.148438 C 2116.539062 1511.761719 2113.761719 1463.859375 2108.78125 1415.691406 C 2103.859375 1368.21875 2096.769531 1320.609375 2087.820312 1273.039062 C 2078.839844 1225.28125 2068.039062 1177.75 2055.738281 1130.621094 C 2051.171875 1113.089844 2044.820312 1096.460938 2036.269531 1081.460938 C 2028.699219 1068.171875 2019.328125 1056.140625 2007.851562 1045.910156 C 1996.378906 1035.691406 1983.238281 1027.550781 1968.21875 1022.050781 C 1953.808594 1016.769531 1937.648438 1013.851562 1919.570312 1013.738281 C 1910.558594 1013.691406 1898.589844 1013.511719 1883.671875 1013.191406 C 1868.429688 1012.871094 1850.261719 1012.421875 1829.171875 1011.851562 C 1811.460938 1011.371094 1791.75 1010.800781 1770.078125 1010.128906 C 1752.210938 1009.589844 1733.351562 1009 1713.5 1008.359375 "/>
</svg>
